<?xml version="1.0" encoding="UTF-8" standalone="no"?>
<svg
   xmlns:dc="http://purl.org/dc/elements/1.1/"
   xmlns:cc="http://creativecommons.org/ns#"
   xmlns:rdf="http://www.w3.org/1999/02/22-rdf-syntax-ns#"
   xmlns:svg="http://www.w3.org/2000/svg"
   xmlns="http://www.w3.org/2000/svg"
   xmlns:sodipodi="http://sodipodi.sourceforge.net/DTD/sodipodi-0.dtd"
   xmlns:inkscape="http://www.inkscape.org/namespaces/inkscape"
   inkscape:version="1.0 (4035a4fb49, 2020-05-01)"
   height="250"
   width="462.28687"
   sodipodi:docname="logo-header.svg"
   xml:space="preserve"
   viewBox="0 0 462.28686 250"
   y="0px"
   x="0px"
   id="Layer_1"
   version="1.1"><metadata
   id="metadata25"><rdf:RDF><cc:Work
       rdf:about=""><dc:format>image/svg+xml</dc:format><dc:type
         rdf:resource="http://purl.org/dc/dcmitype/StillImage" /></cc:Work></rdf:RDF></metadata><defs
   id="defs23" /><sodipodi:namedview
   inkscape:current-layer="Layer_1"
   inkscape:window-maximized="1"
   inkscape:window-y="-8"
   inkscape:window-x="1072"
   inkscape:cy="540.3"
   inkscape:cx="959.7"
   inkscape:zoom="0.5921875"
   showgrid="false"
   id="namedview21"
   inkscape:window-height="1017"
   inkscape:window-width="1920"
   inkscape:pageshadow="2"
   inkscape:pageopacity="0"
   guidetolerance="10"
   gridtolerance="10"
   objecttolerance="10"
   borderopacity="1"
   bordercolor="#666666"
   pagecolor="#ffffff" />
<style
   id="style2"
   type="text/css">
	.st0{fill:#B3B2B3;}
	.st1{fill:#FFFFFF;}
	.st2{fill:#CBCACA;}
	.st3{fill:#F2F2F2;}
	.st4{fill:#E4E4E3;}
	.st5{fill:#00A99D;}
</style>
<g
   transform="matrix(0.21805109,0,0,0.21805109,21.792581,11.885996)"
   id="XMLID_277_">
	<polygon
   points="631.6,42 631.6,41.5 825.7,-0.3 825.7,0 1102.9,0 1102.2,665.9 1103.3,1.2 1288.6,42.6 1264.3,497.2 1247,551.7 1259.9,578.4 1212.8,1017.2 1128.8,794.1 826.2,689.4 826.4,1036.5 "
   class="st0"
   id="XMLID_372_" />
	<polygon
   points="1091.8,182.1 835.3,180.6 651.3,65.3 834,29.6 1094.5,29.6 1277,66.2 "
   class="st1"
   id="XMLID_280_" />
	<polygon
   points="1153.8,736.7 1120.2,723.3 1097.4,165 1289.2,42.8 1289.2,419.9 1247.8,551.9 1289.2,638.8 1289.2,639.1 1264.2,874.6 1213.4,1017.3 "
   class="st2"
   id="XMLID_282_" />
	<polygon
   points="840.7,165 824.6,822.4 800.3,880.1 827.4,1037.8 767.7,981.5 670.1,803.3 699.2,656.3 679.5,573 631,447.9 632.6,43.4 "
   class="st3"
   id="XMLID_283_" />
	<polygon
   points="1119.5,706.7 1118,668.8 1097.4,165 840.7,165 824.6,822.4 892.4,718.2 1019.3,733.5 1120.2,723.3 "
   class="st4"
   id="XMLID_284_" />
</g>
<g
   transform="matrix(0.21805109,0,0,0.21805109,21.792581,11.885996)"
   id="g18">
	<path
   d="M 31,657.1 H 0.3 V 381.2 h 87.3 c 37.4,0 67,6.7 88.8,20.1 21.8,13.4 32.7,34.4 32.7,63.1 -0.3,28.4 -12.2,49.8 -35.7,64.1 C 149.9,542.8 119.5,550 82.1,550 H 31 Z M 88.5,402.7 H 31 v 125.8 h 52.1 c 28.4,0 51.3,-5.1 68.4,-15.4 17.2,-10.3 26,-26.4 26.3,-48.3 0,-22.5 -7.6,-38.4 -22.8,-47.9 -15.2,-9.5 -37.4,-14.2 -66.5,-14.2 z"
   class="st5"
   id="XMLID_311_" />
	<path
   d="m 431.2,374.7 c 29.7,0 56.4,6.1 80.1,18.3 23.6,12.2 42.1,29.1 55.3,50.7 13.2,21.6 19.8,46.1 19.8,73.4 0,27.3 -6.8,52 -20.3,74 -13.5,22 -32.4,39.4 -56.5,52.1 -24.1,12.7 -51.3,19.2 -81.3,19.5 -29.4,0 -56,-6.1 -79.6,-18.3 -23.6,-12.2 -42.1,-29.1 -55.3,-50.7 -13.2,-21.6 -19.8,-46.1 -19.8,-73.4 0,-27.3 6.8,-51.9 20.3,-73.9 13.5,-21.9 32.3,-39.2 56.3,-51.9 23.9,-12.6 50.9,-19.3 81,-19.8 z M 306.3,520 c 0,23 5.2,43.6 15.6,61.9 10.4,18.3 24.8,32.6 43.1,43 18.4,10.4 39.1,15.6 62.2,15.6 24.1,0 45.7,-5.3 64.7,-15.8 19,-10.5 33.9,-25.2 44.6,-43.8 10.7,-18.7 16.1,-39.8 16.1,-63.3 0,-23 -5.2,-43.6 -15.6,-61.9 -10.4,-18.3 -24.8,-32.5 -43.1,-42.8 -18.3,-10.3 -39.1,-15.4 -62.2,-15.4 -24.1,0 -45.7,5.3 -64.7,15.8 -19,10.5 -33.9,25.2 -44.6,43.8 -10.8,18.6 -16.1,39.6 -16.1,62.9 z"
   class="st5"
   id="XMLID_314_" />
	<path
   d="M 875.1,657.1 H 680.7 V 381.2 h 30.7 v 255.6 h 161.2 z"
   class="st5"
   id="XMLID_333_" />
	<path
   d="m 1270.3,381.2 h 87.3 c 37.7,0 67.4,6.2 89,18.7 21.7,12.5 32.5,32.5 32.5,60.1 -0.3,35.2 -20.5,59.2 -60.5,72.2 l 87.3,125 h -34.7 L 1391.4,539 c -13.9,1.4 -26.9,2 -39.2,2 h -51.1 v 116 h -30.7 z m 88.3,21.5 h -57.5 v 117.7 h 52.1 c 28.1,0 50.8,-4.6 68.2,-13.8 17.3,-9.2 26.2,-24.5 26.5,-45.9 0,-21.9 -7.7,-37.1 -23.1,-45.4 -15.3,-8.4 -37.4,-12.6 -66.2,-12.6 z"
   class="st5"
   id="XMLID_338_" />
	<path
   d="M 1582.8,657.1 V 381.2 h 30.7 v 275.9 z"
   class="st5"
   id="XMLID_365_" />
	<path
   d="m 1713.2,645.3 7.4,-19.5 c 10.6,4.3 23.2,8 37.7,11.2 14.5,3.1 29.4,4.7 44.6,4.7 27.8,0 49.4,-4.6 64.7,-13.8 15.4,-9.2 23.1,-21.1 23.1,-35.7 0,-10.3 -3.4,-19.1 -10.2,-26.6 -6.8,-7.4 -16.5,-14.3 -29.3,-20.5 -12.7,-6.2 -30.2,-13.1 -52.3,-20.7 -60.8,-21.1 -91.3,-48.5 -91.3,-82.4 0,-12.4 4.4,-23.8 13.1,-34.1 8.8,-10.3 21.1,-18.4 36.9,-24.3 15.9,-6 34.2,-8.9 55,-8.9 15.5,0 30.5,1.5 44.9,4.5 14.4,3 27.2,6.8 38.4,11.4 l -10.9,19.1 c -11.9,-4.3 -23,-7.7 -33.2,-10.1 -10.3,-2.4 -23,-3.6 -38.2,-3.6 -23.8,0 -42.6,4.2 -56.5,12.6 -13.9,8.4 -20.8,19.6 -20.8,33.7 0,10.3 3.4,19.1 10.2,26.4 6.8,7.3 16.3,13.9 28.5,19.9 12.2,6 30.2,13.5 54.1,22.7 22.1,8.4 39.5,16.2 52.1,23.3 12.6,7.2 22.2,15.4 28.8,24.5 6.6,9.2 9.9,20.3 9.9,33.3 0,13.5 -4.6,25.6 -13.9,36.3 -9.3,10.7 -22.7,19 -40.4,25 -17.7,6 -38.4,8.9 -62.2,8.9 -14.2,0 -30.1,-1.6 -47.6,-4.9 -17.5,-3.4 -31.7,-7.5 -42.6,-12.4 z"
   class="st5"
   id="XMLID_367_" />
	<polygon
   id="polygon16"
   points="1163.2,659.1 1193.5,655.1 1064.5,381.2 1032.3,381.2 909.8,657.1 939,657.1 976.9,574.3 1048.6,413.1 1123.5,574.3 "
   class="st5" />
</g>
</svg>
