<?xml version="1.0" encoding="UTF-8" standalone="no"?>
<svg
   xmlns:dc="http://purl.org/dc/elements/1.1/"
   xmlns:cc="http://creativecommons.org/ns#"
   xmlns:rdf="http://www.w3.org/1999/02/22-rdf-syntax-ns#"
   xmlns:svg="http://www.w3.org/2000/svg"
   xmlns="http://www.w3.org/2000/svg"
   xmlns:sodipodi="http://sodipodi.sourceforge.net/DTD/sodipodi-0.dtd"
   xmlns:inkscape="http://www.inkscape.org/namespaces/inkscape"
   height="250.412"
   width="250.412"
   inkscape:version="1.0 (4035a4fb49, 2020-05-01)"
   sodipodi:docname="TheDotLogo.svg"
   xml:space="preserve"
   viewBox="0 0 250.412 250.412"
   y="0px"
   x="0px"
   id="Layer_1"
   version="1.1"><metadata
   id="metadata45"><rdf:RDF><cc:Work
       rdf:about=""><dc:format>image/svg+xml</dc:format><dc:type
         rdf:resource="http://purl.org/dc/dcmitype/StillImage" /></cc:Work></rdf:RDF></metadata><defs
   id="defs43" /><sodipodi:namedview
   inkscape:current-layer="Layer_1"
   inkscape:window-maximized="1"
   inkscape:window-y="-8"
   inkscape:window-x="1072"
   inkscape:cy="257.64707"
   inkscape:cx="335.29413"
   inkscape:zoom="1.4166667"
   showgrid="false"
   id="namedview41"
   inkscape:window-height="1017"
   inkscape:window-width="1920"
   inkscape:pageshadow="2"
   inkscape:pageopacity="0"
   guidetolerance="10"
   gridtolerance="10"
   objecttolerance="10"
   borderopacity="1"
   bordercolor="#666666"
   pagecolor="#ffffff" />
<style
   id="style2"
   type="text/css">
	.st0{fill:#FFFFFF;}
	.st1{fill:#330000;}
</style>
<circle
   style="stroke-width:0.417353"
   id="circle4"
   r="125.206"
   cy="125.206"
   cx="125.206"
   class="st0" />
<path
   style="stroke-width:0.513649"
   id="path6"
   d="m 136.96535,1.9562605 c 11.65985,6.1124318 31.69217,24.5524565 23.67924,42.1192735 -3.0819,6.780177 -8.32112,10.01617 -13.0467,15.512222 -9.39979,11.04347 -9.81071,35.750024 -11.45439,36.263671 -1.95187,0.616377 -3.33872,-27.788453 7.037,-41.143343 6.06107,-7.75611 7.037,-4.468753 11.40302,-13.560354 C 164.5997,20.396285 135.57849,1.2371518 136.96535,1.9562605 Z"
   class="st1" />
<path
   style="stroke-width:0.513649"
   id="path8"
   d="m 110.66649,3.8567652 c -1.90051,0 -26.607078,12.2762268 -14.587662,34.5686238 4.622852,8.577948 8.064292,14.639016 11.351662,23.26833 7.49929,19.775511 11.04346,50.697241 12.58441,52.084091 1.95188,1.7464 1.64368,-35.698676 -7.29382,-56.450113 -3.49281,-8.0643 -7.24247,-9.964804 -12.27623,-22.189667 C 92.277817,15.105694 112.15606,3.8567652 110.66649,3.8567652 Z"
   class="st1" />
<g
   transform="matrix(0.51364968,0,0,0.51364968,-28.840781,-15.559193)"
   id="g14">
	<path
   id="path10"
   d="m 512.9,303 -56.3,-0.2 c -1.7,8.4 -3.9,16.6 -6.6,24.5 l 22,-2.5 c 11.1,-1.9 24.8,2 24.2,9.9 -0.8,9.8 -1.5,26.8 -2.4,43.1 -0.9,17 -9.3,32.6 -13.6,48.5 0.1,-0.5 1.1,0 1.6,0 24,0.1 40.3,-33.7 40.5,-56.3 l 4,-60.4 c 0,-6.5 -6.6,-6.5 -13.4,-6.6 z"
   class="st1" />
	<path
   id="path12"
   d="m 488.7,419.1 c 0.8,-2.3 1.7,-4.7 2.5,-7.1 3.9,-10.7 7.9,-21.8 8.5,-33.8 0.3,-5.5 0.6,-11.1 0.9,-16.5 0.5,-10.3 1,-20.1 1.5,-26.5 0.3,-3.6 -0.9,-6.9 -3.5,-9.6 -4.2,-4.5 -12,-7.2 -21,-7.2 -2.2,0 -4.5,0.2 -6.6,0.5 l -12.7,1.4 c 1.1,-3.8 2.1,-7.6 3,-11.5 L 513,309 c 2.2,0 5.8,0.1 7.2,0.6 l -4,60.2 v 0.2 c -0.1,17.8 -11.3,43.2 -27.5,49.1 z"
   class="st0" />
</g>
<g
   transform="matrix(0.51364968,0,0,0.51364968,-28.840781,-15.559193)"
   id="g18">
	<path
   id="path16"
   d="m 302.7,306.9 c -81.9,0 -148.8,-16.6 -162,-37.5 15,103.6 81.3,182.4 162.2,182.4 81.1,0 148.2,-77.2 163,-181.1 -12.2,21.3 -80.4,36.2 -163.2,36.2 z m 0.1,138.5 c -78.2,0 -143.3,-71.7 -157.8,-166.7 12.8,19.2 78.5,33.7 157.6,33.7 80,0 146.3,-14.9 158,-34.4 -14.2,95.4 -79.4,167.4 -157.8,167.4 z"
   class="st1" />
</g>
<g
   transform="matrix(0.51364968,0,0,0.51364968,-28.840781,-15.559193)"
   id="g22">
	<path
   id="path20"
   d="m 381.3,425.1 c -5.5,3.9 -11.2,7.4 -17,10.5 4.7,2.5 7.3,5.3 7.3,8.3 0,10.3 -31.3,18.7 -70,18.7 -38.7,0 -70,-8.4 -70,-18.7 0,-3.5 3.6,-6.8 10,-9.6 -5.9,-3.3 -11.6,-7 -17.1,-11.1 -20.2,5.2 -32.8,12.6 -32.8,20.7 0,15.9 48.3,28.8 107.9,28.8 59.6,0 107.9,-12.9 107.9,-28.8 -0.1,-7.2 -9.9,-13.8 -26.2,-18.8 z"
   class="st1" />
</g>
<g
   transform="matrix(0.51364968,0,0,0.51364968,-28.840781,-15.559193)"
   id="g26">
	<path
   id="path24"
   d="m 506.5,410.8 c -5.8,6.8 -12.7,11.2 -20.4,11.1 -0.5,0 -1.4,-0.6 -1.5,0 1.4,-5.9 3.2,-11.7 5,-17.5 -19.2,-6.5 -43,-12 -70,-16.1 -6.3,8.3 -13.2,15.9 -20.4,22.7 37.7,7.7 62,19.8 62,33.4 0,23.2 -70.3,41.9 -157,41.9 -86.7,0 -157,-18.8 -157,-41.9 0,-13.7 24.5,-25.8 62.3,-33.5 -7.5,-7.2 -14.6,-15.2 -21.2,-23.9 -77.6,10.8 -130.7,32.4 -130.7,57.4 0,35.7 108.3,64.6 241.9,64.6 133.6,0 241.9,-28.9 241.9,-64.6 0.1,-12.4 -12.7,-23.8 -34.9,-33.6 z"
   class="st1" />
</g>
<path
   style="stroke-width:0.513649"
   id="path28"
   d="m 124.68912,30.155629 c 3.03052,-3.903738 3.39008,-2.260059 5.7015,-6.831541 1.74641,-3.441452 -0.10276,-8.834774 -1.69504,-12.584418 -0.25682,-0.616379 -0.92457,-0.9759349 -1.59231,-0.9245691 -7.3452,0.7191101 -14.074,7.8074761 -15.87178,17.5154551 -1.69504,8.886139 1.28413,17.258628 6.83154,21.162366 1.02729,0.719111 2.46553,-0.05136 2.41415,-1.284124 -0.10276,-4.571483 0.71912,-12.533052 4.21194,-17.053169 z"
   class="st1" />
<path
   style="stroke-width:0.513649"
   id="path30"
   d="m 136.70852,13.770203 c -1.18139,-0.873204 -2.77371,0.359555 -2.26006,1.746411 1.28413,3.287356 1.48959,7.036999 0.0513,10.324357 -1.43822,3.287359 -4.00646,4.828306 -6.26652,7.499286 -3.49282,4.057831 -4.4174,12.019402 -5.03377,15.614951 -0.1541,0.770473 0.35956,1.540947 1.1814,1.695044 v 0 c 8.26975,1.540949 16.59088,-5.906972 18.64548,-16.693615 1.59232,-8.423856 -1.13002,-16.33406 -6.3179,-20.186434 z"
   class="st1" />
<g
   transform="matrix(0.51364968,0,0,0.51364968,-28.840781,-15.559193)"
   id="g34">
	<path
   id="path32"
   d="m 302.2,257 c -66,0 -122.6,11.2 -147.1,27.2 2.8,1.2 5.9,2.4 9.1,3.6 16.6,-13 71.6,-30.5 120.3,-10.7 6,2.4 30.9,12.5 29.4,19.9 -0.9,4.6 -11.7,7.7 -27.3,9.6 4.9,0.1 9.9,0.2 15,0.2 63.3,0 118.6,-8.1 149.8,-21.1 C 428.2,268.9 370.2,257 302.2,257 Z"
   class="st1" />
</g>
<g
   transform="matrix(0.51364968,0,0,0.51364968,-28.840781,-15.559193)"
   id="g38">
	<path
   id="path36"
   d="m 303.2,224.1 c -89.8,0 -162.6,19.8 -162.6,44.2 0,24.4 72.8,44.2 162.6,44.2 89.8,0 162.6,-19.8 162.6,-44.2 0.1,-24.4 -72.7,-44.2 -162.6,-44.2 z m 0,85.1 C 218,309.2 149,290.4 149,267.3 c 0,-23.2 69.1,-41.9 154.2,-41.9 85.1,0 154.2,18.8 154.2,41.9 0.1,23.1 -69,41.9 -154.2,41.9 z"
   class="st1" />
</g>
</svg>
